<svg width="39" height="39" viewBox="0 0 39 39" fill="none" xmlns="http://www.w3.org/2000/svg">
<path fill-rule="evenodd" clip-rule="evenodd" d="M15.1089 15.1279C15.3807 15.2465 15.6829 15.3121 16.0002 15.3121H18.8918V11.1244H20.3375V9.72844H17.9224C17.6388 8.9546 17.1259 8.27829 16.4475 7.78357C15.7691 7.28884 14.9551 6.99752 14.1066 6.94582C13.2581 6.89411 12.4126 7.0843 11.6752 7.49275C10.9378 7.9012 10.3409 8.50989 9.95882 9.24316C9.57673 9.97644 9.42626 10.802 9.52612 11.6171C9.62597 12.4323 9.97174 13.2011 10.5205 13.8281C11.0692 14.4551 11.7966 14.9126 12.6124 15.1437C13.4282 15.3747 14.2963 15.3692 15.1089 15.1279ZM13.8315 8.33252C12.7617 8.33252 11.827 8.89368 11.3267 9.72844H16.3363C16.0825 9.30394 15.7174 8.95144 15.2777 8.7064C14.838 8.46136 14.3392 8.33241 13.8315 8.33252ZM16.0002 13.9162C15.8085 13.9162 15.6246 13.8427 15.489 13.7118C15.3535 13.5809 15.2773 13.4034 15.2773 13.2182V11.1244H17.446V13.9162H16.0002Z" fill="black"/>
<path d="M4.43452 16.7084C3.66763 16.7084 2.93215 17.0026 2.38988 17.5261C1.84761 18.0497 1.54297 18.7598 1.54297 19.5003V23.688C1.54297 24.4285 1.84761 25.1386 2.38988 25.6622C2.93215 26.1857 3.66763 26.4799 4.43452 26.4799H4.47355C4.65934 28.1201 5.50005 29.4671 6.75499 30.4233C8.16968 31.5003 10.0817 32.0635 12.1405 32.0635C15.4311 32.0635 18.473 30.7842 19.4937 27.8709C19.7634 27.8927 20.034 27.841 20.2747 27.7217C20.5155 27.6025 20.7168 27.4204 20.8557 27.1962C20.9946 26.9719 21.0656 26.7146 21.0606 26.4534C21.0556 26.1921 20.9748 25.9375 20.8274 25.7184L23.5657 24.2792L22.8746 23.0536L19.3643 24.8983L15.747 23.5882H15.7455C15.6079 23.5381 15.4894 23.4486 15.4059 23.3318C15.3223 23.2149 15.2776 23.0762 15.2778 22.9342V20.8962C15.2778 20.526 15.1255 20.1709 14.8544 19.9091C14.5832 19.6473 14.2155 19.5003 13.8321 19.5003C13.4486 19.5003 13.0809 19.6473 12.8097 19.9091C12.5386 20.1709 12.3863 20.526 12.3863 20.8962V24.386C12.3862 24.6702 12.4761 24.9477 12.6437 25.1813C12.8114 25.4149 13.0489 25.5935 13.3246 25.6933L18.1217 27.4298C17.372 29.5425 15.1123 30.6676 12.1405 30.6676C10.3427 30.6676 8.76389 30.1742 7.65137 29.3268C6.70221 28.6045 6.07258 27.6127 5.91788 26.3828C6.53015 26.2217 7.07051 25.8706 7.45563 25.3836C7.84075 24.8966 8.04924 24.3007 8.04895 23.688V19.5003C8.04895 18.7598 7.74431 18.0497 7.20204 17.5261C6.65977 17.0026 5.92429 16.7084 5.1574 16.7084H6.24174C6.43346 16.7084 6.61733 16.6349 6.75289 16.504C6.88846 16.3731 6.96462 16.1956 6.96462 16.0105C6.96462 15.8253 6.88846 15.6478 6.75289 15.5169C6.61733 15.386 6.43346 15.3125 6.24174 15.3125H3.35019C3.15847 15.3125 2.9746 15.386 2.83903 15.5169C2.70346 15.6478 2.6273 15.8253 2.6273 16.0105C2.6273 16.1956 2.70346 16.3731 2.83903 16.504C2.9746 16.6349 3.15847 16.7084 3.35019 16.7084H4.43452ZM27.457 20.5681L26.231 19.8283L23.7327 23.688H27.5669V22.2921H26.3409L27.457 20.5681Z" fill="black"/>
<path d="M10.2192 16.708C9.83577 16.708 9.46803 16.8551 9.1969 17.1169C8.92576 17.3786 8.77344 17.7337 8.77344 18.1039V24.7346C8.77346 25.4443 8.97731 26.1402 9.36232 26.7449C9.74734 27.3496 10.2985 27.8393 10.9544 28.1598C11.6104 28.4802 12.3455 28.6188 13.0782 28.56C13.8108 28.5013 14.5122 28.2477 15.1045 27.8272L12.8187 26.9994C12.2675 26.7999 11.7926 26.4428 11.4572 25.9757C11.1219 25.5087 10.9422 24.9539 10.9421 24.3856V20.8958C10.9421 20.1553 11.2467 19.4452 11.789 18.9216C12.3313 18.3981 13.0668 18.1039 13.8336 18.1039C14.6005 18.1039 15.336 18.3981 15.8783 18.9216C16.4206 19.4452 16.7252 20.1553 16.7252 20.8958V18.8019C16.7252 18.2466 16.4967 17.714 16.09 17.3213C15.6833 16.9286 15.1317 16.708 14.5565 16.708H10.2192Z" fill="black"/>
<g clip-path="url(#clip0_1723_1391)">
<path d="M32.4818 15.1647C32.5207 15.2522 32.5408 15.3469 32.5408 15.4426V31.2228C32.5408 31.4047 32.4686 31.5792 32.3399 31.7079C32.2112 31.8366 32.0367 31.9089 31.8547 31.9089C31.6728 31.9089 31.4983 31.8366 31.3696 31.7079C31.2409 31.5792 31.1687 31.4047 31.1687 31.2228V24.3995C31.168 24.7556 31.1412 25.0033 31.1412 25.0033C31.1412 25.0033 29.1323 25.2729 28.3399 24.4887C27.5481 23.7045 27.7656 21.662 27.7656 21.662C27.7656 21.662 29.7745 21.3924 30.5669 22.1766C31.0733 22.6775 31.1666 23.6929 31.1687 24.3604V15.4426C31.1687 15.3438 31.1892 15.2491 31.2277 15.1647C30.7378 14.6213 30.1395 13.8021 30.1395 13.0413C30.1395 11.7535 31.8547 10.2969 31.8547 10.2969C31.8547 10.2969 33.57 11.7535 33.57 13.0413C33.57 13.8021 32.9717 14.6213 32.4818 15.1647Z" fill="black"/>
<path d="M33.1446 26.9811C33.937 26.1975 35.9459 26.4665 35.9459 26.4665C35.9459 26.4665 36.1634 28.509 35.3716 29.2932C34.5792 30.0767 32.5703 29.8078 32.5703 29.8078C32.5703 29.8078 32.3528 27.7653 33.1446 26.9811ZM35.9459 16.8612C35.9459 16.8612 33.937 16.5915 33.1446 17.3757C32.3528 18.16 32.5703 20.2025 32.5703 20.2025C32.5703 20.2025 34.5792 20.4721 35.3716 19.6879C36.1634 18.9037 35.9459 16.8612 35.9459 16.8612Z" fill="black"/>
</g>
<defs>
<clipPath id="clip0_1723_1391">
<rect width="10.2557" height="28.7159" fill="white" transform="translate(26.7031 5.1416)"/>
</clipPath>
</defs>
</svg>
